<svg version="1.1" xmlns="http://www.w3.org/2000/svg" xmlns:xlink="http://www.w3.org/1999/xlink" width="537.08688" height="268.68603" viewBox="0,0,537.08688,268.68603"><defs><linearGradient x1="242.82738" y1="92.05159" x2="242.82738" y2="360.73762" gradientUnits="userSpaceOnUse" id="color-1"><stop offset="0" stop-color="#7cc3ef" stop-opacity="0"/><stop offset="1" stop-color="#7cc3ef"/></linearGradient><linearGradient x1="218.76783" y1="105.18352" x2="218.76783" y2="106.64167" gradientUnits="userSpaceOnUse" id="color-2"><stop offset="0" stop-color="#44b7ff" stop-opacity="0"/><stop offset="1" stop-color="#44b7ff"/></linearGradient></defs><g transform="translate(25.71607,-92.05158)"><g data-paper-data="{&quot;isPaintingLayer&quot;:true}" fill-rule="nonzero" stroke="none" stroke-width="0" stroke-linecap="butt" stroke-linejoin="miter" stroke-miterlimit="10" stroke-dasharray="" stroke-dashoffset="0" style="mix-blend-mode: normal"><path d="M-25.71606,360.73762v-268.68603h537.08688v268.68603zM216.54167,105.49902v-0.00143h-0.03333l-0.0157,-0.07848l-0.41213,0.08243c-0.11685,0.02099 -0.20551,0.12317 -0.20551,0.24605c0,0.13807 0.11193,0.25 0.25,0.25h0.41607c0.01405,0.00007 0.02811,0.0002 0.04219,0.00039l-0.03185,0.01062c-0.10216,0.03142 -0.17641,0.12653 -0.17641,0.23899c0,0.11246 0.07426,0.20758 0.17641,0.23899l0.24453,0.08151l0.01239,-0.03716c0.04178,0.03139 0.09372,0.04999 0.15,0.04999h0.16416c0.11203,0.02757 0.2271,0.04866 0.34427,0.06461c0.02848,0.10676 0.12584,0.18539 0.24157,0.18539c0,0 0,0 0,0c0,0 0,0 0,0l0.25,0v-0.0286c0.66717,0.15367 1.3192,0.11494 2.04005,0.1087l0.03441,-0.0234l0.0046,0.0138l0.24453,-0.08151c0.10216,-0.03142 0.17641,-0.12653 0.17641,-0.23899c0,-0.0998 -0.05848,-0.18594 -0.14304,-0.22603l-0.185,-0.0925c0.03108,-0.02946 0.05459,-0.06681 0.06733,-0.10885c0.10265,-0.03111 0.17738,-0.12647 0.17738,-0.23929c0,-0.13807 -0.11193,-0.25 -0.25,-0.25c0,0 0,0 0,0l-0.13032,0c-0.0119,-0.03184 -0.02519,-0.06302 -0.03982,-0.09333c0.17015,-0.04657 0.17015,-0.24 0.17015,-0.24l-0.25,-0.33333c-0.44637,0 -0.63099,-0.03718 -0.66373,0.23192l-0.32675,-0.1307l-0.0337,0.08425c-0.50026,-0.21235 -0.96209,-0.18547 -1.64248,-0.18547h-0.25c-0.13807,0 -0.25,0.11193 -0.25,0.25c0,0.10297 0.06225,0.1914 0.15118,0.22971c-0.05762,0.00621 -0.11499,0.01383 -0.17211,0.02305c-0.0576,-0.0014 -0.10636,-0.00231 -0.14466,-0.00276z" fill="url(#color-1)"/><path d="M219.09628,105.18352l0.12272,0c-0.00316,0.01424 -0.00573,0.02954 -0.00773,0.04599z" fill="url(#color-2)"/></g></g></svg>